<svg xmlns="http://www.w3.org/2000/svg" version="1.1" xmlns:xlink="http://www.w3.org/1999/xlink" xmlns:svgjs="http://svgjs.com/svgjs" width="1440" height="560" preserveAspectRatio="none" viewBox="0 0 1440 560"><g mask="url(&quot;#SvgjsMask1016&quot;)" fill="none"><rect width="1440" height="560" x="0" y="0" fill="#0e2a47"></rect><path d="M0,480.713C88.313,463.506,118.077,350.069,192.192,299.057C262.728,250.508,378.428,266.683,419.848,191.738C460.92,117.422,410.855,26.035,388.33,-55.833C368.381,-128.34,342.971,-197.789,296.424,-256.853C248.189,-318.059,185.36,-361.62,117.355,-399.674C32.355,-447.238,-52.041,-519.167,-148.527,-505.835C-246.797,-492.256,-326.638,-413.26,-381.671,-330.72C-433.385,-253.157,-431.926,-156.262,-443.293,-63.736C-454.415,26.794,-483.947,120.752,-447.404,204.322C-410.675,288.316,-325.205,336.492,-247.214,384.672C-170.449,432.095,-88.566,497.97,0,480.713" fill="#0b2239"></path><path d="M1440 1086.566C1534.721 1066.262 1593.994 978.758 1676.621 928.1890000000001 1761.763 876.081 1873.079 865.065 1932.716 785.016 1997.232 698.418 2034.78 583.333 2012.217 477.728 1989.987 373.685 1889.775 310.764 1815.181 234.904 1745.487 164.027 1688.593 62.52600000000001 1590.182 48.52699999999999 1492.319 34.605999999999995 1414.068 124.24700000000001 1324.029 165.039 1248.625 199.20100000000002 1161.549 209.353 1103.952 268.813 1044.811 329.868 1023.419 414.722 1002.393 497.082 979.133 588.193 954.51 680.48 975.454 772.1510000000001 999.1890000000001 876.039 1039.517 986.11 1127.769 1045.841 1216.487 1105.887 1335.252 1109.02 1440 1086.566" fill="#113255"></path></g><defs><mask id="SvgjsMask1016"><rect width="1440" height="560" fill="#ffffff"></rect></mask></defs></svg>